<svg xmlns="http://www.w3.org/2000/svg">
    <symbol id="advertising" viewBox="0 0 32 32" enable-background="new 0 0 32 32">
     <path style="text-indent:0;text-align:start;line-height:normal;text-transform:none;block-progression:tb;-inkscape-font-specification:Bitstream Vera Sans" d="M 30 4.65625 L 28.71875 5.03125 L 5.8125 12 L 3 12 L 2 12 L 2 13 L 2 19 L 2 20 L 3 20 L 5.8125 20 L 7.78125 20.59375 L 7.75 20.6875 L 7.75 20.71875 C 7.1079958 22.831899 8.2967012 25.179177 10.5 25.84375 C 10.5092 25.84655 10.522 25.84105 10.53125 25.84375 C 12.653271 26.488523 15.003004 25.314785 15.65625 23.09375 L 15.6875 23 L 28.71875 26.96875 L 30 27.34375 L 30 26 L 30 6 L 30 4.65625 z M 28 7.34375 L 28 24.65625 L 6.28125 18.03125 L 6.15625 18 L 6 18 L 4 18 L 4 14 L 6 14 L 6.15625 14 L 6.28125 13.96875 L 28 7.34375 z M 9.6875 21.1875 L 13.78125 22.40625 L 13.75 22.5 L 13.75 22.53125 C 13.40636 23.699627 12.163861 24.27191 11.09375 23.9375 C 9.9253729 23.59386 9.3218404 22.382611 9.65625 21.3125 L 9.65625 21.28125 L 9.6875 21.1875 z" color="#000" overflow="visible" enable-background="accumulate" font-family="Bitstream Vera Sans"/>
    </symbol>
    <symbol id="contacts" viewBox="0 0 32 32" enable-background="new 0 0 32 32">
     <path style="text-indent:0;text-align:start;line-height:normal;text-transform:none;block-progression:tb;-inkscape-font-specification:Bitstream Vera Sans" d="M 16 4 C 12.145852 4 9 7.1458513 9 11 C 9 13.393064 10.220383 15.517805 12.0625 16.78125 C 8.485554 18.302923 6 21.859881 6 26 L 8 26 C 8 21.533333 11.533333 18 16 18 C 20.466667 18 24 21.533333 24 26 L 26 26 C 26 21.859881 23.514446 18.302923 19.9375 16.78125 C 21.779617 15.517805 23 13.393064 23 11 C 23 7.1458513 19.854148 4 16 4 z M 16 6 C 18.773268 6 21 8.2267317 21 11 C 21 13.773268 18.773268 16 16 16 C 13.226732 16 11 13.773268 11 11 C 11 8.2267317 13.226732 6 16 6 z" color="#000" overflow="visible" enable-background="accumulate" font-family="Bitstream Vera Sans"/>
    </symbol>
    <symbol id="donate" viewBox="0 0 32 32" enable-background="new 0 0 32 32">
     <path style="text-indent:0;text-align:start;line-height:normal;text-transform:none;block-progression:tb;-inkscape-font-specification:Bitstream Vera Sans" d="M 18 2.125 C 17.890956 2.1886088 17.160253 2.5250921 16.28125 2.84375 C 15.402247 3.1624079 14.319944 3.537088 13.25 3.90625 C 12.180056 4.275412 11.098853 4.6193801 10.25 4.9375 C 9.8255737 5.09656 9.4625969 5.240501 9.15625 5.375 C 8.8499031 5.509499 8.6508389 5.5805309 8.34375 5.84375 C 7.9796802 6.1558098 7.7307031 6.5038835 7.34375 7.03125 C 6.9567969 7.5586165 6.512544 8.2113726 6.09375 8.875 C 5.674956 9.5386274 5.2749158 10.229727 4.96875 10.84375 C 4.6625842 11.457773 4.40625 11.879356 4.40625 12.59375 C 4.40625 12.935417 4.452395 12.970792 4.5 13.15625 C 4.547605 13.341708 4.6066083 13.583916 4.6875 13.84375 C 4.8492834 14.363418 5.0682641 15.019642 5.34375 15.75 C 5.8363948 17.056082 6.4744675 18.543259 7.1875 19.78125 C 6.4706603 20.826647 6 22.083823 6 23.5 C 6 27.055556 8.9444444 30 12.5 30 C 16.055556 30 19 27.055556 19 23.5 C 19 21.998419 18.442778 20.594266 17.53125 19.46875 C 17.885933 19.322627 18.263479 19.167604 18.71875 18.96875 C 19.86712 18.467163 21.260401 17.732353 22.53125 16.40625 A 1.0001 1.0001 0 0 0 22.53125 16.375 C 23.859891 14.925573 24.437804 12.949633 25.03125 11.21875 C 25.624696 9.487867 26.257191 8.068123 27.0625 7.53125 L 25.9375 5.875 C 24.342809 6.938127 23.731554 8.793383 23.125 10.5625 C 22.522104 12.320947 21.92522 14.045855 21.0625 15 C 20.033349 16.073897 18.93288 16.676587 17.90625 17.125 C 16.888641 17.569473 16.008743 17.783278 15.21875 18.40625 C 15.211747 18.411773 15.194488 18.40066 15.1875 18.40625 C 14.611318 18.867196 13.916523 19.549076 13.15625 20.09375 C 12.395977 20.638424 11.599123 21 11 21 C 10.445455 21 9.6422045 20.393954 9.59375 19.8125 C 9.549948 19.374475 9.692293 18.945254 10.0625 18.46875 C 10.432707 17.992246 11.014601 17.524326 11.625 17.125 C 12.845797 16.326348 14.15625 15.84375 14.15625 15.84375 A 1.0001 1.0001 0 0 0 14.59375 15.5 C 14.59375 15.5 15.152891 14.750671 15.78125 13.9375 C 16.409609 13.124329 17.225993 12.163434 17.34375 12.0625 A 1.0001 1.0001 0 0 0 16.4375 10.34375 C 16.4375 10.34375 15.765677 10.518833 14.96875 10.5625 C 14.171823 10.60617 13.380652 10.421083 13.09375 10.15625 A 1.0001 1.0001 0 0 0 11.5 10.4375 C 11.5 10.4375 10.441943 12.179568 9.28125 12.4375 A 1.0001 1.0001 0 0 0 8.6875 13.96875 C 8.6875 13.96875 9.0451487 14.441041 9.21875 15.65625 A 1.0001 1.0001 0 0 0 9.5 16.21875 C 9.5 16.21875 9.546293 16.26396 9.5625 16.28125 C 9.1927853 16.592204 8.8045573 16.857996 8.5 17.25 C 8.4243482 17.347374 8.3510608 17.458281 8.28125 17.5625 C 7.8861128 16.74886 7.5239136 15.871538 7.21875 15.0625 C 6.9567359 14.367858 6.7413416 13.724082 6.59375 13.25 C 6.5199542 13.012959 6.4723165 12.823136 6.4375 12.6875 C 6.4285606 12.652675 6.4108387 12.628475 6.40625 12.59375 C 6.40625 12.553472 6.4062539 12.580594 6.40625 12.5625 C 6.4184182 12.623287 6.5100004 12.200076 6.75 11.71875 C 7.0094592 11.198398 7.387544 10.561373 7.78125 9.9375 C 8.174956 9.3136274 8.5838281 8.7007585 8.9375 8.21875 C 9.2774345 7.7554638 9.60977 7.3940599 9.625 7.375 C 9.6231329 7.3739535 9.6494698 7.3820856 9.65625 7.375 C 9.7198924 7.3432051 9.844775 7.27318 9.96875 7.21875 C 10.2167 7.1098897 10.563489 6.9643775 10.96875 6.8125 C 11.779272 6.5087449 12.807444 6.149588 13.875 5.78125 C 14.942556 5.412912 16.032128 5.0469671 16.9375 4.71875 C 17.842872 4.3905329 18.509044 4.1613912 19 3.875 L 18 2.125 z M 12.75 12.15625 C 13.29073 12.371809 13.811374 12.519928 14.34375 12.53125 C 14.28931 12.60193 14.242274 12.647866 14.1875 12.71875 C 13.614076 13.460828 13.231357 13.98046 13.125 14.125 C 12.914595 14.20444 12.107821 14.621557 11.1875 15.125 C 11.12415 15.04911 11.10729 15.017242 11.0625 14.96875 C 10.929379 14.403874 10.867433 14.257352 10.71875 13.9375 C 11.812601 13.377863 12.370731 12.746478 12.75 12.15625 z M 15.8125 20.5 C 16.54499 21.296582 17 22.370055 17 23.5 C 17 25.944444 14.944444 28 12.5 28 C 10.055556 28 8 25.944444 8 23.5 C 8 22.883333 8.1261943 22.30284 8.34375 21.78125 C 8.9985956 22.551801 9.9920951 23 11 23 C 12.300877 23 13.397773 22.374076 14.3125 21.71875 C 14.901692 21.296643 15.392376 20.867205 15.8125 20.5 z" color="#000" overflow="visible" enable-background="accumulate" font-family="Bitstream Vera Sans"/>
    </symbol>
    <symbol id="inspection" viewBox="0 0 32 32" enable-background="new 0 0 32 32">
     <path style="text-indent:0;text-align:start;line-height:normal;text-transform:none;block-progression:tb;-inkscape-font-specification:Bitstream Vera Sans" d="M 16 2 C 14.74096 2 13.84816 2.8903886 13.40625 4 L 11 4 L 6 4 L 5 4 L 5 5 L 5 28 L 5 29 L 6 29 L 26 29 L 27 29 L 27 28 L 27 5 L 27 4 L 26 4 L 21 4 L 18.59375 4 C 18.15184 2.8903886 17.25904 2 16 2 z M 16 4 C 16.554545 4 17 4.4454545 17 5 L 17 6 L 18 6 L 20 6 L 20 8 L 12 8 L 12 6 L 14 6 L 15 6 L 15 5 C 15 4.4454545 15.445455 4 16 4 z M 7 6 L 10 6 L 10 9 L 10 10 L 11 10 L 21 10 L 22 10 L 22 9 L 22 6 L 25 6 L 25 27 L 7 27 L 7 6 z M 21.28125 13.28125 L 15 19.5625 L 11.71875 16.28125 L 10.28125 17.71875 L 14.28125 21.71875 L 15 22.40625 L 15.71875 21.71875 L 22.71875 14.71875 L 21.28125 13.28125 z" color="#000" overflow="visible" enable-background="accumulate" font-family="Bitstream Vera Sans"/>
    </symbol>
    <symbol id="maintenance" viewBox="0 0 32 32" enable-background="new 0 0 32 32">
     <path style="text-indent:0;text-align:start;line-height:normal;text-transform:none;block-progression:tb;-inkscape-font-specification:Bitstream Vera Sans" d="M 5.25 2.75 L 4.6875 3.28125 L 3.28125 4.6875 L 2.75 5.25 L 3.15625 5.90625 L 5.25 9.40625 L 5.53125 9.90625 L 6.09375 9.90625 L 8.09375 9.90625 L 8.46875 9.90625 L 12.46875 13.875 C 8.8960894 17.466023 4.3492328 22.025767 4.1875 22.1875 C 2.6206986 23.754301 2.6158087 26.322123 4.21875 27.8125 C 5.7827298 29.355797 8.3263695 29.394915 9.8125 27.8125 C 9.822927 27.8014 9.833428 27.79251 9.84375 27.78125 L 16 21.59375 L 22.1875 27.8125 L 22.28125 27.875 C 23.849884 29.356331 26.34663 29.373342 27.8125 27.8125 L 27.8125 27.78125 L 27.84375 27.78125 C 29.374741 26.216236 29.390661 23.669635 27.8125 22.1875 L 27.78125 22.15625 L 22.5625 16.96875 C 26.072907 16.641736 28.823073 13.676089 28.875 10.09375 L 28.90625 10.09375 C 28.90835 10.0726 28.90435 10.05238 28.90625 10.03125 C 28.907191 10.02069 28.905368 10.01056 28.90625 10 C 29.00293 8.8431991 28.754988 7.7392304 28.15625 6.78125 L 27.46875 5.71875 L 26.59375 6.59375 L 22.8125 10.375 L 21.40625 8.90625 L 25.09375 5.21875 L 26.15625 4.15625 L 24.78125 3.59375 C 23.975601 3.2484719 23.048148 3 22 3 C 18.154545 3 15 6.1545455 15 10 C 15 10.418974 15.08896 10.782865 15.15625 11.15625 C 14.717832 11.595368 14.389026 11.952793 13.875 12.46875 L 9.90625 8.5 L 9.90625 8.09375 L 9.90625 6.09375 L 9.90625 5.53125 L 9.40625 5.25 L 5.90625 3.15625 L 5.25 2.75 z M 22 5 C 22.142261 5 22.239145 5.082479 22.375 5.09375 L 19.28125 8.1875 L 18.59375 8.875 L 19.28125 9.59375 L 22.09375 12.5 L 22.78125 13.21875 L 23.5 12.5 L 26.75 9.25 C 26.77116 9.4791244 26.932068 9.6480696 26.90625 9.90625 L 26.90625 9.9375 L 26.90625 10 C 26.90625 12.754545 24.660795 15 21.90625 15 C 21.539583 15 21.09375 14.9125 20.59375 14.8125 L 20.0625 14.71875 L 19.6875 15.09375 L 8.40625 26.40625 L 8.375 26.40625 L 8.375 26.4375 C 7.6625854 27.21468 6.4205548 27.233055 5.59375 26.40625 L 5.59375 26.375 L 5.5625 26.375 C 4.7853205 25.662585 4.7669452 24.420555 5.59375 23.59375 C 5.9723174 23.215183 13.312797 15.812203 16.90625 12.21875 L 17.3125 11.8125 L 17.15625 11.25 C 17.075272 10.92609 17 10.366667 17 10 C 17 7.2454545 19.245455 5 22 5 z M 5.5625 5.25 L 7.90625 6.6875 L 7.90625 7.6875 L 7.6875 7.90625 L 6.6875 7.90625 L 5.25 5.5625 L 5.5625 5.25 z M 20.1875 17.40625 L 26.40625 23.59375 L 26.40625 23.625 L 26.4375 23.625 C 27.21468 24.337415 27.233055 25.579445 26.40625 26.40625 L 26.375 26.40625 L 26.375 26.4375 C 25.662585 27.21468 24.420555 27.233055 23.59375 26.40625 L 17.40625 20.1875 L 20.1875 17.40625 z" color="#000" overflow="visible" enable-background="accumulate" font-family="Bitstream Vera Sans"/>
    </symbol>
    <symbol id="monitor" viewBox="0 0 32 32" enable-background="new 0 0 32 32">
    <path style="text-indent:0;text-align:start;line-height:normal;text-transform:none;block-progression:tb;-inkscape-font-specification:Bitstream Vera Sans" d="M 2 6 L 2 7 L 2 23 L 2 24 L 3 24 L 15 24 L 15 26 L 10 26 L 10 28 L 22 28 L 22 26 L 17 26 L 17 24 L 29 24 L 30 24 L 30 23 L 30 7 L 30 6 L 29 6 L 3 6 L 2 6 z M 4 8 L 28 8 L 28 22 L 4 22 L 4 8 z" color="#000" overflow="visible" enable-background="accumulate" font-family="Bitstream Vera Sans"/>
    </symbol>
    <symbol id="survey" viewBox="0 0 32 32" enable-background="new 0 0 32 32">
    <path style="text-indent:0;text-align:start;line-height:normal;text-transform:none;block-progression:tb;-inkscape-font-specification:Bitstream Vera Sans" d="M 16 2 C 14.74096 2 13.84816 2.8903886 13.40625 4 L 11 4 L 6 4 L 5 4 L 5 5 L 5 28 L 5 29 L 6 29 L 26 29 L 27 29 L 27 28 L 27 5 L 27 4 L 26 4 L 21 4 L 18.59375 4 C 18.15184 2.8903886 17.25904 2 16 2 z M 16 4 C 16.554545 4 17 4.4454545 17 5 L 17 6 L 18 6 L 20 6 L 20 8 L 12 8 L 12 6 L 14 6 L 15 6 L 15 5 C 15 4.4454545 15.445455 4 16 4 z M 7 6 L 10 6 L 10 9 L 10 10 L 11 10 L 21 10 L 22 10 L 22 9 L 22 6 L 25 6 L 25 27 L 7 27 L 7 6 z M 9 12 L 9 13 L 9 16 L 9 17 L 10 17 L 13 17 L 14 17 L 14 16 L 14 13 L 14 12 L 13 12 L 10 12 L 9 12 z M 16 13 L 16 15 L 23 15 L 23 13 L 16 13 z M 11 14 L 12 14 L 12 15 L 11 15 L 11 14 z M 9 19 L 9 24 L 14 24 L 14 19 L 9 19 z M 16 20 L 16 22 L 23 22 L 23 20 L 16 20 z" color="#000" overflow="visible" enable-background="accumulate" font-family="Bitstream Vera Sans"/>
    </symbol>
    
</svg>